<svg version="1.1" id="Layer_1" xmlns="http://www.w3.org/2000/svg" xmlns:xlink="http://www.w3.org/1999/xlink" x="0px" y="0px"
	 width="100%" viewBox="0 0 1248 932" enable-background="new 0 0 1248 932" xml:space="preserve">
<path fill="#C70E1C" opacity="1.000000" stroke="none" 
	d="
M1178.000000,933.000000 
	C785.378235,933.000000 393.256439,933.000000 1.067320,933.000000 
	C1.067320,622.413757 1.067320,311.827545 1.067320,1.120649 
	C416.999969,1.120649 833.000000,1.120649 1248.997681,1.118235 
	C1248.995361,311.743866 1248.995361,622.371948 1248.993164,933.000000 
	C1225.493896,933.000000 1201.996948,933.000000 1178.000000,933.000000 
M707.826355,465.428925 
	C711.103271,446.671783 714.380188,427.914642 717.726196,408.761963 
	C709.907227,408.761963 702.745728,408.530365 695.616272,408.906372 
	C693.538452,409.015930 690.892334,410.351440 689.630432,411.990234 
	C681.099731,423.069183 672.878052,434.385864 664.534607,445.609497 
	C663.523926,446.969055 662.382874,448.231781 660.886902,450.041901 
	C656.035217,436.994812 651.524231,424.694183 646.828735,412.464386 
	C646.278992,411.032501 644.758972,408.985840 643.609802,408.932709 
	C636.525330,408.605408 629.418335,408.768433 622.232788,408.768433 
	C618.520569,429.745758 614.907043,450.165375 611.266479,470.737671 
	C618.641541,470.737671 625.687500,470.737671 632.643188,470.737671 
	C633.989380,463.471832 635.263672,456.594086 636.537964,449.716370 
	C638.278015,451.787262 639.101013,453.767273 639.865356,455.769653 
	C641.758667,460.729340 642.277161,467.709778 645.869141,470.118195 
	C649.713623,472.695892 656.497803,470.543915 661.901245,471.227570 
	C668.998962,472.125641 673.687439,469.721313 677.320923,463.525208 
	C680.411560,458.254883 684.552734,453.600555 688.229126,448.673676 
	C688.529724,448.860657 688.830322,449.047638 689.130920,449.234619 
	C687.913147,456.372772 686.695374,463.510925 685.439819,470.870270 
	C692.805359,470.870270 699.736511,470.870270 706.654846,470.870270 
	C707.023132,469.176056 707.338684,467.724640 707.826355,465.428925 
M579.925171,479.659546 
	C571.463196,473.463989 563.072388,467.167847 554.512085,461.111267 
	C549.516541,457.576782 545.742615,454.680969 546.313904,446.857178 
	C546.716919,441.337921 548.231384,438.745026 552.105652,435.944855 
	C564.231201,427.181061 576.214539,418.220490 588.245056,409.342041 
	C589.026489,409.985535 589.548584,410.392761 590.045776,410.828369 
	C596.409363,416.403931 604.977478,416.938599 611.068970,412.135468 
	C617.386963,407.153839 619.066956,398.528656 615.090881,391.486450 
	C611.413025,384.972473 603.186584,381.896820 596.107727,384.389160 
	C588.261658,387.151672 584.394653,394.435944 585.683411,403.140869 
	C585.925842,404.778320 584.813049,406.937347 583.698730,408.367157 
	C582.515259,409.885651 580.587219,410.824677 578.981628,412.013092 
	C567.375549,420.603607 555.768799,429.193176 544.802734,437.308990 
	C540.951599,435.331879 537.908630,433.058868 534.512878,432.227753 
	C531.164734,431.408295 527.459351,432.048828 523.552002,432.048828 
	C525.046936,423.247650 526.621460,413.977844 528.249512,404.392883 
	C521.240906,404.392883 514.680176,404.392883 507.772858,404.392883 
	C503.857300,426.634338 499.976532,448.678314 496.059052,470.930756 
	C503.132629,470.930756 509.737335,470.930756 516.515015,470.930756 
	C517.301331,466.900635 518.056824,463.028046 518.907288,458.668945 
	C527.916138,465.790710 536.320435,465.092072 544.225464,457.557526 
	C556.965149,466.930664 569.338684,476.229797 581.955444,485.186249 
	C585.302612,487.562347 586.581787,489.645264 585.847961,493.978760 
	C584.404175,502.504639 590.085632,509.626648 598.677673,511.288147 
	C606.635986,512.827026 614.603577,507.902161 616.866394,500.045532 
	C619.168884,492.050720 614.856567,483.622589 606.858826,480.732666 
	C599.604248,478.111328 593.598389,480.629883 588.403442,485.806274 
	C585.629761,483.788391 583.075378,481.930054 579.925171,479.659546 
M289.540680,422.059509 
	C283.788483,431.263763 281.756073,441.436615 282.146332,452.101654 
	C282.518005,462.258636 288.216583,469.506714 298.245728,470.720001 
	C313.776550,472.598846 329.732391,475.474792 344.028442,463.809967 
	C344.028442,466.599518 344.028442,468.669342 344.028442,470.710449 
	C348.811279,470.710449 353.190277,470.710449 357.573517,470.710449 
	C359.501709,459.594299 361.360199,448.880096 363.239288,438.046936 
	C349.694061,438.046936 336.896057,438.046936 323.774719,438.046936 
	C323.203766,441.325714 322.655365,444.475128 322.017212,448.139954 
	C327.973236,448.139954 333.359039,448.139954 338.744843,448.139954 
	C338.899231,448.564850 339.053650,448.989746 339.208038,449.414642 
	C337.026428,450.584045 334.895966,452.631744 332.653900,452.762268 
	C325.190796,453.196655 317.676361,453.191040 310.204407,452.851868 
	C306.243896,452.672150 303.669189,449.993561 304.018646,445.839294 
	C304.363037,441.744659 304.690491,437.390381 306.345032,433.749786 
	C307.561676,431.072662 310.740875,427.784851 313.332123,427.514313 
	C321.388153,426.673157 329.582886,427.037018 337.718018,427.208832 
	C338.961731,427.235107 340.166779,428.731079 341.404785,429.523743 
	C342.183380,430.022247 342.983582,430.875397 343.785187,430.888458 
	C350.535797,430.998474 357.288940,430.951172 364.018219,430.951172 
	C364.077637,417.763367 358.723389,410.437958 346.423553,409.045807 
	C335.739258,407.836548 324.815460,407.793976 314.064240,408.406616 
	C304.344940,408.960419 295.657928,412.811157 289.540680,422.059509 
M497.374268,438.090637 
	C498.293854,432.902924 499.213440,427.715240 500.175110,422.290131 
	C493.130829,422.290131 486.554993,422.290131 479.874176,422.290131 
	C479.388580,423.956726 478.964783,425.411316 478.481293,427.070770 
	C470.147125,418.982819 460.452759,420.188538 450.868042,421.706879 
	C443.411713,422.888092 438.256317,427.549652 435.173950,434.287079 
	C431.653992,441.980927 430.244385,450.152008 430.908539,458.605591 
	C431.404144,464.913544 434.915192,469.604889 440.881104,470.854950 
	C451.012207,472.977753 461.065277,473.256287 470.131317,466.880341 
	C470.449646,466.656464 470.979584,466.733459 471.596436,466.643036 
	C471.596436,468.182892 471.596436,469.563385 471.596436,470.755066 
	C478.514252,470.755066 485.105988,470.755066 491.691071,470.755066 
	C493.568115,459.912415 495.383453,449.426178 497.374268,438.090637 
M365.085022,447.583496 
	C364.921539,449.407013 364.689545,451.227356 364.605804,453.054535 
	C364.099152,464.102844 368.212036,469.724579 379.140259,471.304108 
	C385.675507,472.248718 392.407501,472.051117 399.048492,472.003265 
	C417.775269,471.868317 426.106934,464.913239 429.712067,446.720306 
	C433.157532,429.333130 426.943481,421.358856 409.353760,420.831055 
	C403.535004,420.656464 397.698181,420.712646 391.880676,420.942657 
	C378.302368,421.479614 370.004364,428.234741 366.468903,441.403534 
	C365.995148,443.168182 365.606384,444.955627 365.085022,447.583496 
M725.998840,425.434998 
	C716.241028,432.840759 714.130493,443.498901 713.944153,454.746796 
	C713.779236,464.700653 717.823547,469.767365 727.600281,471.127838 
	C734.638977,472.107330 741.862915,472.029541 749.000488,471.971069 
	C766.820923,471.825165 775.225281,464.806671 778.781189,447.453247 
	C779.147461,445.665863 779.223206,443.820160 779.460571,442.004974 
	C781.127930,429.253052 775.072937,421.622559 762.315491,421.007660 
	C754.840454,420.647430 747.290894,420.479248 739.856323,421.140503 
	C735.366211,421.539856 731.032166,423.693726 725.998840,425.434998 
M877.898193,453.486389 
	C873.340942,453.982117 868.791260,454.770294 864.224304,454.887634 
	C860.034851,454.995331 858.429077,452.535553 859.401672,448.073853 
	C873.359253,448.073853 887.129639,448.073853 901.329285,448.073853 
	C901.697449,444.994781 902.213440,442.226685 902.328735,439.441956 
	C902.774353,428.681702 898.181030,422.476746 887.460449,421.387665 
	C878.910278,420.519104 870.157043,420.723785 861.570190,421.407959 
	C853.351135,422.062744 846.109680,426.107758 843.151489,434.002197 
	C840.470337,441.157349 838.858582,448.997437 838.418213,456.630341 
	C837.952637,464.699677 842.781067,470.214233 850.830994,470.874390 
	C861.024841,471.710327 871.437195,471.870544 881.581665,470.750031 
	C891.370544,469.668793 896.969421,462.625214 899.752197,452.993164 
	C892.459961,452.993164 885.528748,452.993164 877.898193,453.486389 
M950.081970,443.197693 
	C941.864014,441.939697 933.645996,440.681702 925.173035,439.384674 
	C927.077209,436.343079 933.415649,435.427856 937.420959,436.111145 
	C944.716125,437.355652 952.119446,437.966461 959.429565,438.835968 
	C960.714905,428.545135 956.035034,422.527588 947.064270,422.158905 
	C938.913757,421.823883 930.718689,421.743988 922.579590,422.200562 
	C914.645325,422.645660 908.772522,426.815704 905.681580,434.287354 
	C902.476868,442.034180 905.841797,448.808197 913.886353,450.957306 
	C916.118713,451.553619 918.470459,451.764435 920.783325,451.984985 
	C924.928162,452.380249 929.095459,452.559998 933.229248,453.038391 
	C934.156921,453.145721 934.985229,454.112305 935.859253,454.683350 
	C934.978516,455.474701 934.156189,456.852295 933.206055,456.946930 
	C930.408142,457.225586 927.537476,457.210358 924.735046,456.923096 
	C917.377380,456.168884 910.040649,455.209412 902.773376,454.341003 
	C901.330200,464.381439 906.139343,470.673340 914.686584,470.982941 
	C922.839722,471.278290 931.026978,471.339752 939.172058,470.944763 
	C947.034241,470.563538 952.531067,466.118622 955.617004,459.000793 
	C958.441101,452.486877 956.777039,447.740662 950.081970,443.197693 
M816.407043,436.830811 
	C813.853577,440.870880 811.300049,444.910980 808.330322,449.609558 
	C805.553711,439.892212 803.019653,431.024078 800.531860,422.317505 
	C793.488159,422.317505 786.920776,422.317505 780.039307,422.317505 
	C783.061157,433.053894 785.937378,443.458405 788.929382,453.829498 
	C790.576721,459.539429 790.780457,467.419403 794.629456,470.252075 
	C798.553711,473.140198 806.158264,471.259277 812.129883,470.988892 
	C813.860474,470.910553 816.146667,469.605347 817.104553,468.153992 
	C823.244568,458.851166 829.087036,449.351990 835.024109,439.915344 
	C838.627747,434.187653 842.225647,428.456360 846.261597,422.033630 
	C844.499756,422.033630 843.572754,422.017242 842.646606,422.036224 
	C837.000977,422.152008 830.414429,420.522675 825.981262,422.902313 
	C821.759521,425.168427 819.785339,431.621857 816.407043,436.830811 
z"/>
<path fill="#FEFDFD" opacity="1.000000" stroke="none" 
	d="
M707.740295,465.851074 
	C707.338684,467.724640 707.023132,469.176056 706.654846,470.870270 
	C699.736511,470.870270 692.805359,470.870270 685.439819,470.870270 
	C686.695374,463.510925 687.913147,456.372772 689.130920,449.234619 
	C688.830322,449.047638 688.529724,448.860657 688.229126,448.673676 
	C684.552734,453.600555 680.411560,458.254883 677.320923,463.525208 
	C673.687439,469.721313 668.998962,472.125641 661.901245,471.227570 
	C656.497803,470.543915 649.713623,472.695892 645.869141,470.118195 
	C642.277161,467.709778 641.758667,460.729340 639.865356,455.769653 
	C639.101013,453.767273 638.278015,451.787262 636.537964,449.716370 
	C635.263672,456.594086 633.989380,463.471832 632.643188,470.737671 
	C625.687500,470.737671 618.641541,470.737671 611.266479,470.737671 
	C614.907043,450.165375 618.520569,429.745758 622.232788,408.768433 
	C629.418335,408.768433 636.525330,408.605408 643.609802,408.932709 
	C644.758972,408.985840 646.278992,411.032501 646.828735,412.464386 
	C651.524231,424.694183 656.035217,436.994812 660.886902,450.041901 
	C662.382874,448.231781 663.523926,446.969055 664.534607,445.609497 
	C672.878052,434.385864 681.099731,423.069183 689.630432,411.990234 
	C690.892334,410.351440 693.538452,409.015930 695.616272,408.906372 
	C702.745728,408.530365 709.907227,408.761963 717.726196,408.761963 
	C714.380188,427.914642 711.103271,446.671783 707.740295,465.851074 
z"/>
<path fill="#FEF9FA" opacity="1.000000" stroke="none" 
	d="
M580.223145,479.865662 
	C583.075378,481.930054 585.629761,483.788391 588.403442,485.806274 
	C593.598389,480.629883 599.604248,478.111328 606.858826,480.732666 
	C614.856567,483.622589 619.168884,492.050720 616.866394,500.045532 
	C614.603577,507.902161 606.635986,512.827026 598.677673,511.288147 
	C590.085632,509.626648 584.404175,502.504639 585.847961,493.978760 
	C586.581787,489.645264 585.302612,487.562347 581.955444,485.186249 
	C569.338684,476.229797 556.965149,466.930664 544.225464,457.557526 
	C536.320435,465.092072 527.916138,465.790710 518.907288,458.668945 
	C518.056824,463.028046 517.301331,466.900635 516.515015,470.930756 
	C509.737335,470.930756 503.132629,470.930756 496.059052,470.930756 
	C499.976532,448.678314 503.857300,426.634338 507.772858,404.392883 
	C514.680176,404.392883 521.240906,404.392883 528.249512,404.392883 
	C526.621460,413.977844 525.046936,423.247650 523.552002,432.048828 
	C527.459351,432.048828 531.164734,431.408295 534.512878,432.227753 
	C537.908630,433.058868 540.951599,435.331879 544.802734,437.308990 
	C555.768799,429.193176 567.375549,420.603607 578.981628,412.013092 
	C580.587219,410.824677 582.515259,409.885651 583.698730,408.367157 
	C584.813049,406.937347 585.925842,404.778320 585.683411,403.140869 
	C584.394653,394.435944 588.261658,387.151672 596.107727,384.389160 
	C603.186584,381.896820 611.413025,384.972473 615.090881,391.486450 
	C619.066956,398.528656 617.386963,407.153839 611.068970,412.135468 
	C604.977478,416.938599 596.409363,416.403931 590.045776,410.828369 
	C589.548584,410.392761 589.026489,409.985535 588.245056,409.342041 
	C576.214539,418.220490 564.231201,427.181061 552.105652,435.944855 
	C548.231384,438.745026 546.716919,441.337921 546.313904,446.857178 
	C545.742615,454.680969 549.516541,457.576782 554.512085,461.111267 
	C563.072388,467.167847 571.463196,473.463989 580.223145,479.865662 
z"/>
<path fill="#FEFCFC" opacity="1.000000" stroke="none" 
	d="
M289.750183,421.764893 
	C295.657928,412.811157 304.344940,408.960419 314.064240,408.406616 
	C324.815460,407.793976 335.739258,407.836548 346.423553,409.045807 
	C358.723389,410.437958 364.077637,417.763367 364.018219,430.951172 
	C357.288940,430.951172 350.535797,430.998474 343.785187,430.888458 
	C342.983582,430.875397 342.183380,430.022247 341.404785,429.523743 
	C340.166779,428.731079 338.961731,427.235107 337.718018,427.208832 
	C329.582886,427.037018 321.388153,426.673157 313.332123,427.514313 
	C310.740875,427.784851 307.561676,431.072662 306.345032,433.749786 
	C304.690491,437.390381 304.363037,441.744659 304.018646,445.839294 
	C303.669189,449.993561 306.243896,452.672150 310.204407,452.851868 
	C317.676361,453.191040 325.190796,453.196655 332.653900,452.762268 
	C334.895966,452.631744 337.026428,450.584045 339.208038,449.414642 
	C339.053650,448.989746 338.899231,448.564850 338.744843,448.139954 
	C333.359039,448.139954 327.973236,448.139954 322.017212,448.139954 
	C322.655365,444.475128 323.203766,441.325714 323.774719,438.046936 
	C336.896057,438.046936 349.694061,438.046936 363.239288,438.046936 
	C361.360199,448.880096 359.501709,459.594299 357.573517,470.710449 
	C353.190277,470.710449 348.811279,470.710449 344.028442,470.710449 
	C344.028442,468.669342 344.028442,466.599518 344.028442,463.809967 
	C329.732391,475.474792 313.776550,472.598846 298.245728,470.720001 
	C288.216583,469.506714 282.518005,462.258636 282.146332,452.101654 
	C281.756073,441.436615 283.788483,431.263763 289.750183,421.764893 
z"/>
<path fill="#FEFCFC" opacity="1.000000" stroke="none" 
	d="
M497.286530,438.515320 
	C495.383453,449.426178 493.568115,459.912415 491.691071,470.755066 
	C485.105988,470.755066 478.514252,470.755066 471.596436,470.755066 
	C471.596436,469.563385 471.596436,468.182892 471.596436,466.643036 
	C470.979584,466.733459 470.449646,466.656464 470.131317,466.880341 
	C461.065277,473.256287 451.012207,472.977753 440.881104,470.854950 
	C434.915192,469.604889 431.404144,464.913544 430.908539,458.605591 
	C430.244385,450.152008 431.653992,441.980927 435.173950,434.287079 
	C438.256317,427.549652 443.411713,422.888092 450.868042,421.706879 
	C460.452759,420.188538 470.147125,418.982819 478.481293,427.070770 
	C478.964783,425.411316 479.388580,423.956726 479.874176,422.290131 
	C486.554993,422.290131 493.130829,422.290131 500.175110,422.290131 
	C499.213440,427.715240 498.293854,432.902924 497.286530,438.515320 
M463.399353,455.004944 
	C464.890106,454.975647 466.404541,455.105530 467.867218,454.887787 
	C472.621094,454.179901 475.920929,449.363525 475.646667,443.708832 
	C475.433838,439.320221 473.338226,437.845886 467.203094,437.805908 
	C465.049042,437.791870 462.888580,437.729248 460.741608,437.861023 
	C455.111115,438.206635 451.765625,442.418365 451.886475,448.880524 
	C451.975769,453.657440 453.813843,454.965302 460.496582,455.005035 
	C461.159454,455.008972 461.822418,455.005585 463.399353,455.004944 
z"/>
<path fill="#FEFCFC" opacity="1.000000" stroke="none" 
	d="
M365.131622,447.158020 
	C365.606384,444.955627 365.995148,443.168182 366.468903,441.403534 
	C370.004364,428.234741 378.302368,421.479614 391.880676,420.942657 
	C397.698181,420.712646 403.535004,420.656464 409.353760,420.831055 
	C426.943481,421.358856 433.157532,429.333130 429.712067,446.720306 
	C426.106934,464.913239 417.775269,471.868317 399.048492,472.003265 
	C392.407501,472.051117 385.675507,472.248718 379.140259,471.304108 
	C368.212036,469.724579 364.099152,464.102844 364.605804,453.054535 
	C364.689545,451.227356 364.921539,449.407013 365.131622,447.158020 
M404.967590,437.991272 
	C401.327667,437.960358 397.674133,437.716675 394.050934,437.947876 
	C388.486908,438.302887 385.444183,442.557434 385.617889,449.268829 
	C385.732330,453.691772 387.582458,454.964020 394.061371,454.997986 
	C396.544006,455.010986 399.043732,455.107361 401.506317,454.866058 
	C405.937378,454.431793 408.234344,451.556061 408.924469,447.417694 
	C409.515106,443.875854 410.596283,439.993622 404.967590,437.991272 
z"/>
<path fill="#FEFCFC" opacity="1.000000" stroke="none" 
	d="
M726.313416,425.247131 
	C731.032166,423.693726 735.366211,421.539856 739.856323,421.140503 
	C747.290894,420.479248 754.840454,420.647430 762.315491,421.007660 
	C775.072937,421.622559 781.127930,429.253052 779.460571,442.004974 
	C779.223206,443.820160 779.147461,445.665863 778.781189,447.453247 
	C775.225281,464.806671 766.820923,471.825165 749.000488,471.971069 
	C741.862915,472.029541 734.638977,472.107330 727.600281,471.127838 
	C717.823547,469.767365 713.779236,464.700653 713.944153,454.746796 
	C714.130493,443.498901 716.241028,432.840759 726.313416,425.247131 
M743.019775,437.918579 
	C737.038513,439.340424 734.179077,443.524414 734.915710,450.046753 
	C735.585266,455.974823 740.269104,454.766510 744.078857,454.991455 
	C745.565613,455.079254 747.062988,455.032806 748.554077,454.992493 
	C755.540771,454.803558 760.399475,448.916962 758.459961,442.261963 
	C757.937256,440.468384 755.302124,438.572357 753.307983,438.094269 
	C750.326599,437.379456 747.054138,437.878571 743.019775,437.918579 
z"/>
<path fill="#FEFDFD" opacity="1.000000" stroke="none" 
	d="
M878.247803,453.239777 
	C885.528748,452.993164 892.459961,452.993164 899.752197,452.993164 
	C896.969421,462.625214 891.370544,469.668793 881.581665,470.750031 
	C871.437195,471.870544 861.024841,471.710327 850.830994,470.874390 
	C842.781067,470.214233 837.952637,464.699677 838.418213,456.630341 
	C838.858582,448.997437 840.470337,441.157349 843.151489,434.002197 
	C846.109680,426.107758 853.351135,422.062744 861.570190,421.407959 
	C870.157043,420.723785 878.910278,420.519104 887.460449,421.387665 
	C898.181030,422.476746 902.774353,428.681702 902.328735,439.441956 
	C902.213440,442.226685 901.697449,444.994781 901.329285,448.073853 
	C887.129639,448.073853 873.359253,448.073853 859.401672,448.073853 
	C858.429077,452.535553 860.034851,454.995331 864.224304,454.887634 
	C868.791260,454.770294 873.340942,453.982117 878.247803,453.239777 
M862.265259,439.569519 
	C861.932922,440.244293 861.600586,440.919067 861.350220,441.427429 
	C868.020386,441.427429 874.478516,441.427429 881.203308,441.427429 
	C878.481079,437.337097 869.788818,436.418793 862.265259,439.569519 
z"/>
<path fill="#FEFCFC" opacity="1.000000" stroke="none" 
	d="
M950.411438,443.391602 
	C956.777039,447.740662 958.441101,452.486877 955.617004,459.000793 
	C952.531067,466.118622 947.034241,470.563538 939.172058,470.944763 
	C931.026978,471.339752 922.839722,471.278290 914.686584,470.982941 
	C906.139343,470.673340 901.330200,464.381439 902.773376,454.341003 
	C910.040649,455.209412 917.377380,456.168884 924.735046,456.923096 
	C927.537476,457.210358 930.408142,457.225586 933.206055,456.946930 
	C934.156189,456.852295 934.978516,455.474701 935.859253,454.683350 
	C934.985229,454.112305 934.156921,453.145721 933.229248,453.038391 
	C929.095459,452.559998 924.928162,452.380249 920.783325,451.984985 
	C918.470459,451.764435 916.118713,451.553619 913.886353,450.957306 
	C905.841797,448.808197 902.476868,442.034180 905.681580,434.287354 
	C908.772522,426.815704 914.645325,422.645660 922.579590,422.200562 
	C930.718689,421.743988 938.913757,421.823883 947.064270,422.158905 
	C956.035034,422.527588 960.714905,428.545135 959.429565,438.835968 
	C952.119446,437.966461 944.716125,437.355652 937.420959,436.111145 
	C933.415649,435.427856 927.077209,436.343079 925.173035,439.384674 
	C933.645996,440.681702 941.864014,441.939697 950.411438,443.391602 
z"/>
<path fill="#FEFCFC" opacity="1.000000" stroke="none" 
	d="
M816.614990,436.532532 
	C819.785339,431.621857 821.759521,425.168427 825.981262,422.902313 
	C830.414429,420.522675 837.000977,422.152008 842.646606,422.036224 
	C843.572754,422.017242 844.499756,422.033630 846.261597,422.033630 
	C842.225647,428.456360 838.627747,434.187653 835.024109,439.915344 
	C829.087036,449.351990 823.244568,458.851166 817.104553,468.153992 
	C816.146667,469.605347 813.860474,470.910553 812.129883,470.988892 
	C806.158264,471.259277 798.553711,473.140198 794.629456,470.252075 
	C790.780457,467.419403 790.576721,459.539429 788.929382,453.829498 
	C785.937378,443.458405 783.061157,433.053894 780.039307,422.317505 
	C786.920776,422.317505 793.488159,422.317505 800.531860,422.317505 
	C803.019653,431.024078 805.553711,439.892212 808.330322,449.609558 
	C811.300049,444.910980 813.853577,440.870880 816.614990,436.532532 
z"/>
<path fill="#C70E1C" opacity="1.000000" stroke="none" 
	d="
M462.942322,455.005280 
	C461.822418,455.005585 461.159454,455.008972 460.496582,455.005035 
	C453.813843,454.965302 451.975769,453.657440 451.886475,448.880524 
	C451.765625,442.418365 455.111115,438.206635 460.741608,437.861023 
	C462.888580,437.729248 465.049042,437.791870 467.203094,437.805908 
	C473.338226,437.845886 475.433838,439.320221 475.646667,443.708832 
	C475.920929,449.363525 472.621094,454.179901 467.867218,454.887787 
	C466.404541,455.105530 464.890106,454.975647 462.942322,455.005280 
z"/>
<path fill="#C70E1C" opacity="1.000000" stroke="none" 
	d="
M405.410400,438.066406 
	C410.596283,439.993622 409.515106,443.875854 408.924469,447.417694 
	C408.234344,451.556061 405.937378,454.431793 401.506317,454.866058 
	C399.043732,455.107361 396.544006,455.010986 394.061371,454.997986 
	C387.582458,454.964020 385.732330,453.691772 385.617889,449.268829 
	C385.444183,442.557434 388.486908,438.302887 394.050934,437.947876 
	C397.674133,437.716675 401.327667,437.960358 405.410400,438.066406 
z"/>
<path fill="#C70E1C" opacity="1.000000" stroke="none" 
	d="
M743.462646,437.889954 
	C747.054138,437.878571 750.326599,437.379456 753.307983,438.094269 
	C755.302124,438.572357 757.937256,440.468384 758.459961,442.261963 
	C760.399475,448.916962 755.540771,454.803558 748.554077,454.992493 
	C747.062988,455.032806 745.565613,455.079254 744.078857,454.991455 
	C740.269104,454.766510 735.585266,455.974823 734.915710,450.046753 
	C734.179077,443.524414 737.038513,439.340424 743.462646,437.889954 
z"/>
<path fill="#C70E1C" opacity="1.000000" stroke="none" 
	d="
M862.594788,439.322754 
	C869.788818,436.418793 878.481079,437.337097 881.203308,441.427429 
	C874.478516,441.427429 868.020386,441.427429 861.350220,441.427429 
	C861.600586,440.919067 861.932922,440.244293 862.594788,439.322754 
z"/>
</svg>